<svg id="Layer_1" data-name="Layer 1" xmlns="http://www.w3.org/2000/svg" viewBox="0 0 1960.71 301.19"><defs><style>.cls-1{fill:#fff;}</style></defs><title>Artboard 1</title><polygon class="cls-1" points="1057.75 14.38 1030.31 0.14 1042.92 48.65 1057.75 14.38"/><path class="cls-1" d="M1046.28,106,993.68,6.79l-65,203,92.11,91.39,91.67-92.3L1074.28,56Zm-25.75,173.44-70.19-70.19L1020.53,139l70.19,70.19Z"/><rect class="cls-1" x="984.25" y="171.84" width="74.11" height="74.11" transform="translate(151.42 783.36) rotate(-45)"/><path class="cls-1" d="M1946.86,235.75a113.28,113.28,0,0,0-21.42-32.85c-3.77-4.09-7.85-7.9-12.14-12.18,2-.51,3.5-.79,4.92-1.23,11.46-3.55,20.38-9.93,23.44-22.22,4.44-17.82-4.32-31.81-23-37.6-9-2.78-18.14-1.94-27.26-2s-18,.06-27-.07c-2.27,0-3.53.87-3.93,2.88s1.39,2,2.51,2.18c3,.56,2.79,2.66,2.79,4.9q0,52,.06,104c0,3.26-.84,4.87-4.15,5.29-2.5.32-4.25,1.72-4.2,4.83,6.88,0,13.7-.25,20.5.1,3.94.2,4.89-1,4.88-4.88-.16-34.32,0-68.64-.18-103,0-3.35.9-4.75,4.2-5a84.52,84.52,0,0,1,17.46-.06c11.22,1.42,18,6.94,19.92,16a22.11,22.11,0,0,1-9.6,23.88c-4.11,2.67-8.71,4-13.44,5.07-5.3,1.21-10.73.79-16.86,1.3,2.4,2.08,4.15,3.58,5.88,5.1,16.15,14.13,30.37,29.84,40.93,48.71,2.37,4.24,2.6,10.65,7,12.43s9.85.4,14.84.38c2.73,0,5.63.58,7.71-2v-1C1953.1,247.55,1949.47,241.92,1946.86,235.75Z"/><path class="cls-1" d="M54,129.7c-17-4.42-34.41-1-51.67-2.27.5,4.75,1.45,8.4,6.77,8.6,2.78.1,3.16,2,3.16,4.47q-.12,49.47,0,98.95c0,2.87-.66,4.29-3.72,4.44-3.9.19-7.28,1.48-8.59,5.71v2H35.82c-.65-4.24-1.62-7.28-5.81-7.79-2.81-.34-2.08-2.54-2.09-4.23,0-11.66.15-23.33-.12-35-.09-3.77,1.23-4.29,4.54-4a78.64,78.64,0,0,0,19.9-.93c23.65-4.24,36.46-24,29.75-46.31C77.83,139.48,67,133.06,54,129.7Zm-5.08,57a51.09,51.09,0,0,1-17.76,1.72c-2.51-.13-3.4-1.12-3.33-3.69.17-6.48.06-13,.06-19.45,0-6.32.14-12.64-.06-19-.09-2.87.93-3.71,3.68-3.75,5.84-.07,11.63-.11,17.29,1.62,10.68,3.26,16.08,10.37,16.1,21.22S59.6,183.42,48.94,186.67Z"/><path class="cls-1" d="M1327.09,127.53c-3.28-.26-4.48,1-5.43,4.06-7.51,24.46-15.23,48.86-22.91,73.27-1.65,5.25-3.37,10.47-5.39,16.76-.82-2.25-1.24-3.32-1.61-4.41-8-23.61-16.09-47.18-23.92-70.85-2-5.91-6.79-11.8-.55-18.58h-29.6c1.45,1.31.18,3.8,2.47,3.66,3.28-.19,3.7,2.15,4.63,4.21,1.36,3,2.48,6.2,4.11,9.07,1.8,3.18,1.61,6,.43,9.41-4.05,11.61-7.76,23.33-11.62,35-3.36,10.14-6.74,20.28-10.47,31.49-1.05-3-1.76-4.83-2.35-6.7q-13-41.1-26.07-82.21c-.6-1.9-.46-4.29-3.75-4.19-6.64.21-13.29.06-20.36.06.81,1.68.34,4.09,2.24,3.82,4.55-.63,4.65,2.74,5.53,5.41q18.12,54.92,36.1,109.88c1.11,3.42,2.27,5,6.27,5.09s4.94-2,5.87-5q12-38.82,24.18-77.58c.45-1.44.36-3.28,2.3-4.4.61,1.66,1.2,3.15,1.71,4.67,8.7,26,17.51,52,26,78,1.25,3.85,3.32,4,6.51,4.18,3.44.22,4.45-1.39,5.34-4.23q17.08-54.21,34.31-108.36c1-3.2,1.77-6.34,5.76-7.3,1.69-.41,2.33-2.16,2.29-4.22C1335,127.6,1331,127.84,1327.09,127.53Z"/><path class="cls-1" d="M1542.3,127.52c-3.76-.26-4.66.87-4.64,4.62.18,27.82.11,55.64.07,83.45,0,1.52.55,3.2-.64,4.88-1-1.44-1.91-2.62-2.75-3.84q-29.53-42.7-59.09-85.39c-1.07-1.54-1.65-3.69-4.26-3.66-7.57.08-15.14,0-23.7,0,1.88,2.11,1.23,4.61,4,5,4.89.71,6.38,4.51,6.4,8.53.14,33.48.05,67,.13,100.45,0,3.15-1.33,5-4.22,4.88-3.67-.1-3.79,2.34-4.46,5.11,5.81,0,11.45-.24,17.05.09,3.67.21,4.71-.74,4.68-4.57-.18-28.82-.11-57.64-.08-86.45,0-1.54-.47-3.2.6-5,1.07,1.46,2,2.62,2.79,3.82,20.07,28.61,40.26,57.14,60.07,85.92,3.2,4.65,6.36,6.73,12,6.37,3.78-.24,4.56-1.15,4.55-4.77-.14-35.31-.08-70.63-.09-105.94,0-3.82-.64-7.78,4.81-8.84,1.33-.26,2.12-2.37,2.61-4.62C1552.61,127.61,1547.44,127.87,1542.3,127.52Z"/><path class="cls-1" d="M221.89,247.75c-6-2-8.66-7-10.91-12.25-3.52-8.28-7.25-16.41-12.54-23.77a195,195,0,0,0-18-21.64c1.64-.46,2.59-.7,3.52-1,14.76-4.46,22.76-14.78,22.91-29.57.15-14.1-7.61-24.16-22.33-28.79a44.26,44.26,0,0,0-13.74-2.16c-12.83.11-25.66,0-38.49,0a26.43,26.43,0,0,0-3.49.09c-1.38.18-1.67,1.45-2.12,2.51-.61,1.42.61,1.88,1.42,2,4,.52,3.69,3.38,3.69,6.28q-.05,48.24,0,96.47c0,5,1.59,11-6.63,11.3-1.46.06-2.3,1.64-2.18,3,.19,2.14,2.09,1.1,3.17,1.12,6.5.11,13-.22,19.49.15,4,.23,4.59-1.32,4.56-4.84-.16-19.16-.08-38.32-.08-57.48q0-22.49,0-45c0-2.08-.19-4,2.74-4.26,8.71-.69,17.34-.65,25.45,3.2a17,17,0,0,1,10,13.9c1.87,13.83-7.59,24.59-23.55,26.53-4,.48-8,.76-13.3,1.25,2.09,1.73,3.29,2.6,4.34,3.62C174,206.27,191,224.88,199.7,249.52c.26.75.3,1.79,1.37,1.8,6.83,0,13.66.07,20.48-.09.7,0,1.72-1.17,2-2S222.68,248,221.89,247.75Z"/><path class="cls-1" d="M313,128.66c-21.3-.42-42.47,15-48.78,36.24a81.21,81.21,0,0,0,1.61,52c7.37,20.19,25.62,32.31,48.08,32.51,22.83.2,41.13-11.65,49.11-31.77,3.74-9.43,5-19.27,5-30.46a68.37,68.37,0,0,0-2.17-18.69C359.8,144.48,339.5,129.19,313,128.66Zm32.92,83.13a40.23,40.23,0,0,1-4.8,9.83c-13.44,20.11-39.91,20-53.23-.18-5.57-8.45-8.21-19.13-8.26-35.25a55.6,55.6,0,0,1,5.19-24.85c5.37-11.09,14.11-18.57,26.22-20.11,11.69-1.48,21.26,4.19,28.66,13.15,4.76,5.76,7.32,12.62,8.58,19.94A76.7,76.7,0,0,1,345.95,211.79Z"/><path class="cls-1" d="M590.17,229.54c-3-.26-3.67,2.14-4.33,4-2.1,5.85-5.94,7.51-12.09,7.22-12-.56-24-.25-36-.1-2.91,0-4-.48-4-3.75.21-13.15.18-26.32,0-39.47a23.83,23.83,0,0,1,.14-3.92c10.15.23,24,.08,34.14.08s10.25,0,12.45-10.19a3.88,3.88,0,0,0-.08-.82c-13.93,0-32.72-.18-46.69.11,0,0,0-1.24,0-5,.23-11.32.26-22.65,0-34-.1-4,.63-5.43,5-5.27,10.31.38,20.65.22,31,.09,6.47-.08,13.19-1.14,15.3,7.57.37,1.54,2,1.56,3.34,1.46,2.25-.17,1.39-1.91,1.42-3,.1-4.16-.26-8.35.13-12.48.36-3.87-1-4.6-4.67-4.57-24.48.17-49,.08-73.45.12-1.06,0-2.28-.51-3.38.67,1.09,2.45,2.24,4.82,5.3,5.27,2.78.41,3.19,2.09,3.17,4.59-.11,13.66-.13,30.76,0,44.42,0,0-.76.13-3.5.41-6.66.67-12.82,2.48-15.5,10.62,5.26,0,10.08-.05,14.88-.07l4.19,0c-.19,14.65-.21,33.42-.08,48.08,0,2.9-.52,4.68-3.69,5.23-2.34.4-3.69,2-3.66,4.78q40.32,0,80.48,0c1.62,0,2.9,0,2.85-2.27q-.19-8.74,0-17.49C593,229.62,591.81,229.68,590.17,229.54Z"/><path class="cls-1" d="M1819.44,229.66c-1.56-.13-3.41-.67-4.46,1.26s-2.36,4-3.27,6.16c-1.11,2.59-2.66,3.64-5.68,3.59q-20.23-.3-40.47,0c-3,0-3.94-.67-3.89-3.82.19-13.16.15-30.12,0-43.27,0,0,.72,0,3.91,0,10.16.2,20.32.08,30.48.08s10.29,0,12.37-10.25a3,3,0,0,0-.14-.75c-14.25,0-28.57-.06-42.88.06-2.69,0-3.72,0-3.72,0,.17-12.32.23-28.15,0-40.47-.07-3.43,1.34-3.66,4.07-3.63,10.49.12,21,.15,31.48,0,6.6-.09,13.52-1.29,15.77,7.63.39,1.54,2,1.52,3.38,1.39,2.24-.21,1.31-2,1.34-3.08.11-4.16-.27-8.36.14-12.48s-1.23-4.52-4.74-4.5c-24.32.15-48.63.08-73,.08h-3.94c1.13,3.3,2.48,5.53,5.49,6,2.86.42,3.11,2.22,3.09,4.64-.09,13-.2,31.85.05,44.84,0,0-.55,0-5.06.26-6.45.37-11.78,3-13.83,10.29,5.17,0,10-.08,14.81-.08a26.14,26.14,0,0,1,4.06.17c-.16,14.66-.16,33.3,0,48,0,3-.67,4.62-3.76,5.18-2.32.43-3.68,2-3.57,4.76q40.34,0,80.51,0c2.24,0,2.83-.73,2.78-2.86-.13-5.33,0-10.66-.09-16C1820.67,231.69,1821.59,229.84,1819.44,229.66Z"/><path class="cls-1" d="M722.56,233.18c-8.8,4.47-18.38,5.54-28.07,6-17.82.76-32.52-8.23-39.84-24.51-5.3-11.8-6-24.12-3.65-36.65,4.66-24.8,28.27-40.08,51.16-33.2,9.24,2.78,16.33,8.66,22.32,16.43,3.7-8.47,2.2-17,2.17-25.41,0-3.57-4-4.86-6.7-2.35-1.72,1.6-3,.73-4.46.14-7.93-3.11-16-6.08-24.59-5.85-24.15.65-43.71,10.61-54.19,32.76-11.35,24-10.67,48.67,6.1,70.24,17.08,22,50.79,31.76,83.91,9,1.49-1,2.3-2,.81-3.42S726.24,231.31,722.56,233.18Z"/><path class="cls-1" d="M853.77,127.54c-18.82.14-37.64.07-56.45.07-10.66,0-21.32,0-32,0-1.26,0-3.31-.95-3.48,1.51-.39,5.69-.66,11.39-1,17.3,2.78-.36,4.42-1.07,5.31-3.24,1.23-3,3.6-3.78,6.82-3.69q11.73.35,23.48,0c3.36-.11,4.49.6,4.47,4.26q-.24,49,0,97.92c0,3.14-.93,4.51-3.94,4.89-2.71.34-5.29,1.06-5.48,4.78H828.2c-.18-3.72-2.77-4.44-5.47-4.78-3-.38-4-1.73-4-4.88q.2-49,0-97.92c0-3.64,1.09-4.41,4.47-4.27,6.48.27,13,.3,19.48,0,5.11-.23,9.55.33,12.49,5.17A3.08,3.08,0,0,0,858.9,146c-.3-4.79-.87-9.61-.82-14.41C858.11,128.19,856.9,127.51,853.77,127.54Z"/><path class="cls-1" d="M1681.44,127.61q-40.72,0-81.43.05c-1.62,0-4.23-1.36-4.35,2.23-.18,5.44-.59,10.87-.91,16.38,2.58,0,4.27-.64,5.18-2.81,1.33-3.2,3.78-4,7.19-3.92,7.82.26,15.65.21,23.48,0,3.06-.07,4.26.49,4.24,4q-.22,49.21,0,98.42c0,3-.94,4.19-3.68,4.61s-5.69,1-5.7,4.72h36.7c-.43-3.77-3.1-4.21-5.75-4.76-1.91-.4-3.73-.57-3.72-3.53q.16-50.21,0-100.42c0-2.5.86-3,3.16-3,6.66.13,13.33.22,20,0,5.34-.18,10.32-.06,13.42,5.32.55,1,1.78,1.44,3.49,1.2-.14-2.75-.22-5.52-.44-8.28C1691.5,127.6,1691.49,127.61,1681.44,127.61Z"/><path class="cls-1" d="M426.3,133.63c4.59-.24,5.49,2.42,5.48,6.33q-.08,44.73,0,89.46a21.1,21.1,0,0,1-1.85,9.21c-1.45,3.06-3.1,6.45-6.78,6.65s-4.26-3.59-5.54-6.21q-.33-.67-.68-1.34c-1.7-3.22-4.3-5.49-8-4.65-4.07.93-5,4.54-5,8.24s1.78,7.09,5.44,8.19c8,2.41,16.15,4.17,24.55,2.32a18.63,18.63,0,0,0,14.27-12.61A49.64,49.64,0,0,0,451,222.08c0-27.66,0-55.31,0-83,0-2.84-.12-5.52,3.81-5.45,3.46.06,3.75-2.26,4.07-4.91H422.18C423.25,130.91,422.88,133.81,426.3,133.63Z"/><path class="cls-1" d="M1406.49,246.39c-2.36,0-3.78-1.84-3.77-4.82q.16-51.94,0-103.87c0-3.22,1.5-4.44,4.2-5.06,3.5-.8,3.5-.81,3.95-4.72h-34.71c.68,2.81,1.19,4.94,4.72,4.84,2.49-.07,4,1.63,4,4.62q-.12,52.19,0,104.37c0,3-1.42,4.74-3.9,4.69-3.83-.08-4.17,2.26-4.74,5h35.09C1410.92,248.41,1410.17,246.42,1406.49,246.39Z"/></svg>